<?xml version="1.0" encoding="UTF-8" standalone="no"?>
<svg viewBox="0 0 400 400" xmlns="http://www.w3.org/2000/svg">
  <style>
    .favicon {
      fill: black;
    }
    @media (prefers-color-scheme: dark) {
      .favicon {
        fill: white;
      }
    }
  </style>
  <g>
    <path
       id="favicon"
       class="favicon"
       d="m 103.82763,398.69786 c -6.160068,-3.33229 -5.369639,-12.33899 1.28998,-14.69922 1.22663,-0.43474 0.45122,-1.22124 -4.30994,-4.37146 C 20.968715,326.80142 38.692367,199.68465 129.68113,172.54225 l 3.33419,-0.99459 -0.19962,-77.413823 -0.19963,-77.413777 -6.14303,-0.390618 c -8.05947,-0.512477 -10.65937,-3.052126 -9.93875,-9.7084238 0.72749,-6.71951489 1.49899,-6.81736863 51.60541,-6.543827 l 43.35985,0.23680962 2.28621,2.55137188 c 5.78985,6.4613871 1.44542,13.4641583 -8.35298,13.4641583 h -5.81689 v 77.671113 77.671116 l 4.11401,1.3421 c 6.43717,2.1 17.89369,7.62005 24.03441,11.58041 3.07791,1.98507 5.85137,3.60918 6.1632,3.60918 0.31181,0 14.63013,-14.02375 31.81845,-31.16393 l 31.25148,-31.16397 -2.39616,-3.01551 c -5.19136,-6.53325 -2.23882,-14.3436 5.42231,-14.3436 3.45292,0 45.52815,39.82969 48.99874,46.3837 4.21399,7.95789 -6.12139,14.90186 -13.34474,8.96581 l -2.99668,-2.46264 -32.39572,32.34527 -32.39571,32.34527 3.44742,7.09365 c 24.82377,51.07946 8.10524,114.08684 -38.6834,145.78669 l -6.53538,4.42779 2.39811,1.23634 c 6.01686,3.10197 5.47352,12.24218 -0.85856,14.44286 -4.16162,1.44637 -121.11681,1.08439 -123.82989,-0.38323 z" />
  </g>
</svg>
